<?xml version='1.0' encoding='utf-8'?>
<svg xmlns="http://www.w3.org/2000/svg" viewBox="0 0 1280 720">
<rect width="1280" height="720" fill="#FFFFFF" x="47" y="47" />
<g transform="translate(0, 56)">
<text x="48" y="72" font-family="Google Sans" font-size="24" font-weight="bold" fill="#1A1A1A">НЕОХВАЧЕННЫЕ ПРИГОРОДЫ</text>
<text x="48" y="104" font-family="Google Sans" font-size="12" fill="#808080">Проблема транспортной доступности</text>
<g>
<rect x="48" y="136" width="464" height="168" rx="12" ry="12" fill="#F8F9FA" stroke="#E0E0E0" stroke-width="1" />
<text x="72" y="168" font-family="Google Sans" font-size="12" font-weight="bold" fill="#1A1A1A">БОЛЕЕ</text>
<text x="72" y="224" font-family="Google Sans" font-size="40" font-weight="bold" fill="#0066CC">85</text>
<text x="160" y="224" font-family="Google Sans" font-size="12" font-weight="bold" fill="#1A1A1A">ТЫС. ЧЕЛОВЕК</text>
<text x="72" y="248" font-family="Google Sans" font-size="12" fill="#1A1A1A">
<tspan x="71" dy="0">пригородного населения не обслуживаются</tspan>
<tspan x="71" dy="18">общественным транспортом.</tspan>
</text>
</g>
<g>
<rect x="48" y="328" width="464" height="112" rx="12" ry="12" fill="#F8F9FA" stroke="#E0E0E0" stroke-width="1" />
<text x="72" y="368" font-family="Google Sans" font-size="12" font-weight="bold" fill="#1A1A1A">Территории без сообщения</text>
<text x="72" y="392" font-family="Google Sans" font-size="12" fill="#1A1A1A">
<tspan x="71" dy="0">Значительные территории остаются без</tspan>
<tspan x="71" dy="18">транспортного сообщения.</tspan>
</text>
</g>
<g>
<rect x="48" y="464" width="464" height="120" rx="12" ry="12" fill="#F8F9FA" stroke="#E0E0E0" stroke-width="1" />
<text x="72" y="496" font-family="Google Sans" font-size="12" font-weight="bold" fill="#1A1A1A">Легенда</text>
<rect x="71.0" y="522.0" width="12.0" height="12.0" rx="2" ry="2" fill="#E53935" />
<text x="88" y="528" font-family="Google Sans" font-size="12" fill="#1A1A1A">Необслуживаемые зоны</text>
<rect x="71.0" y="552.0" width="12.0" height="12.0" rx="2" ry="2" fill="#E0E0E0" />
<text x="88" y="560" font-family="Google Sans" font-size="12" fill="#1A1A1A">Обслуживаемые зоны</text>
</g>
<g>
<rect x="536" y="136" width="696" height="448" rx="12" ry="12" fill="#F8F9FA" stroke="#E0E0E0" stroke-width="1" />
<path d="M576 173 C650 160, 800 220, 900 190 L1193 173 L1193 544 L576 544 Z" fill="#E0E0E0" />
<path d="M750 250 C720 350, 780 450, 900 480 C1000 500, 1050 420, 1100 450 L1150 430 L1080 320 C1050 280, 950 250, 900 280 Z" fill="#E53935" />
<path d="M600 380 C650 360, 680 420, 650 480 L610 500 L590 420 Z" fill="#E53935" />
<path d="M950 195 C980 210, 990 250, 960 270 L930 250 Z" fill="#E53935" />
</g>
</g>
</svg>