<?xml version='1.0' encoding='utf-8'?>
<svg xmlns="http://www.w3.org/2000/svg" viewBox="0 0 1280 720">
  <rect width="1280" height="720" fill="#FFFFFF" x="47" y="47" />
  
  
  <text x="48" y="88" font-family="Google Sans" font-size="24" font-weight="bold" fill="#1A1A1A">РАЗВИТИЕ МИКРОМОБИЛЬНОСТИ К 2026 ГОДУ</text>
  
  
  <rect x="48" y="144" width="360" height="224" rx="12" fill="#F8F9FA" ry="12" />
  <text x="72" y="200" font-family="Google Sans" font-size="44" font-weight="bold" fill="#0066CC">55 км</text>
  <text x="72" y="240" font-family="Google Sans" font-size="14" font-weight="bold" fill="#1A1A1A">Новых велополос</text>
  <text x="72" y="272" font-family="Google Sans" font-size="12" fill="#1A1A1A" width="312">Расширение сети безопасных маршрутов для передвижения на велосипедах.</text>
  <path d="M71 310 L100 310 M71 320 L90 320" stroke="#0066CC" stroke-width="4" stroke-linecap="round" />

  
  <rect x="464" y="144" width="360" height="224" rx="12" fill="#F8F9FA" ry="12" />
  <text x="480" y="200" font-family="Google Sans" font-size="44" font-weight="bold" fill="#0066CC">200</text>
  <text x="480" y="240" font-family="Google Sans" font-size="14" font-weight="bold" fill="#1A1A1A">Парковочных хабов</text>
  <text x="480" y="272" font-family="Google Sans" font-size="12" fill="#1A1A1A" width="312">Специализированные зоны для упорядоченной парковки самокатов.</text>
  <circle cx="490" cy="315" r="8" fill="none" stroke="#0066CC" stroke-width="2" />
  <circle cx="510" cy="315" r="8" fill="none" stroke="#0066CC" stroke-width="2" />

  
  <rect x="872" y="144" width="360" height="224" rx="12" fill="#F8F9FA" ry="12" />
  <text x="896" y="176" font-family="Google Sans" font-size="14" font-weight="bold" fill="#1A1A1A">Цифровизация контроля</text>
  <text x="896" y="208" font-family="Google Sans" font-size="12" fill="#1A1A1A" width="312">Внедрение систем мониторинга и оперативной обратной связи от пользователей.</text>
  <rect x="897.0" y="250.0" width="40.0" height="40.0" rx="8" fill="#E1EFFF" />
  <path d="M907 260 L927 260 M907 270 L927 270 M907 280 L917 280" stroke="#0066CC" stroke-width="2" stroke-linecap="round" />

  
  <text x="48" y="673" font-family="Google Sans" font-size="10" fill="#808080">Слайд 2 | Стратегический план развития городской инфраструктуры</text>
</svg>