<?xml version='1.0' encoding='utf-8'?>
<svg xmlns="http://www.w3.org/2000/svg" viewBox="0 0 1280 720">
<rect width="1280" height="720" fill="#FFFFFF" x="47" y="47" />
<g>
<text x="640" y="72" font-family="Google Sans" font-size="24" font-weight="bold" fill="#1A1A1A" text-anchor="middle">
<tspan x="640" dy="0">РАЗВИТИЕ ПРИОРИТЕТНОЙ СЕТИ</tspan>
<tspan x="640" dy="30">ДЛЯ ОБЩЕСТВЕННОГО ТРАНСПОРТА</tspan>
</text>
<g>
<rect x="48" y="136" width="704" height="536" rx="12" ry="12" fill="#F8F9FA" stroke="#E0E0E0" stroke-width="1" />
<path d="M150 139 V 673 M250 139 V 673 M350 139 V 673 M450 139 V 673 M550 139 V 673 M650 139 V 673" stroke="#E0E0E0" stroke-width="0.5" />
<path d="M47 200 H 747 M47 300 H 747 M47 400 H 747 M47 500 H 747 M47 600 H 747" stroke="#E0E0E0" stroke-width="0.5" />
<path d="M100 650 C 200 500, 300 450, 400 400 S 550 300, 680 200" fill="none" stroke="#0066CC" stroke-width="6" stroke-linecap="round" />
<path d="M680 200 L 700 450" fill="none" stroke="#0066CC" stroke-width="3" stroke-linecap="round" />
<path d="M180 139 V 350 L 400 400" fill="none" stroke="#0066CC" stroke-width="3" stroke-linecap="round" />
<path d="M500 673 V 550 C 500 500, 450 480, 400 400" fill="none" stroke="#0066CC" stroke-width="3" stroke-linecap="round" stroke-dasharray="8 4" />
<rect x="537.0" y="599.0" width="186.0" height="50.0" rx="6" ry="6" fill="#FFFFFF" fill-opacity="0.9" />
<line x1="553" y1="615" x2="573" y2="615" stroke="#0066CC" stroke-width="4" stroke-linecap="round" />
<text x="584" y="616" font-family="Google Sans" font-size="10" fill="#1A1A1A">Новые линии</text>
<line x1="553" y1="633" x2="573" y2="633" stroke="#E0E0E0" stroke-width="2" stroke-linecap="round" />
<text x="584" y="640" font-family="Google Sans" font-size="10" fill="#808080">Существующая сеть</text>
</g>
<g>
<text x="768" y="152" font-family="Google Sans" font-size="10" font-weight="regular" fill="#808080">ЭФФЕКТ</text>
<g transform="translate(771 181)">
<rect x="0.0" y="0.0" width="36.0" height="36.0" rx="8" ry="8" fill="#0066CC" />
<path d="M9 13 H 27 V 24 H 9 Z M 12 26 C 11.4477 26 11 26.4477 11 27 C 11 27.5523 11.4477 28 12 28 H 14 C 14.5523 28 15 27.5523 15 27 C 15 26.4477 14.5523 26 14 26 H 12 Z M 22 26 C 21.4477 26 21 26.4477 21 27 C 21 27.5523 21.4477 28 22 28 H 24 C 24.5523 28 25 27.5523 25 27 C 25 26.4477 24.5523 26 24 26 H 22 Z M 10 10 H 26" stroke="#FFFFFF" stroke-width="1.5" fill="none" stroke-linecap="round" stroke-linejoin="round" />
<text x="48" y="47" font-family="Google Sans" font-size="14" font-weight="bold" fill="#1A1A1A">
<tspan x="52" dy="0">Непрерывный каркас</tspan>
</text>
<text x="48" y="47" font-family="Google Sans" font-size="12" fill="#1A1A1A">
<tspan x="52" dy="0">Создание непрерывного каркаса выделенных</tspan>
<tspan x="52" dy="18">полос (BUS LANE) и линий БРТ.</tspan>
</text>
</g>
<g transform="translate(771 267)">
<rect x="0.0" y="0.0" width="36.0" height="36.0" rx="8" ry="8" fill="#0066CC" />
<path d="M13 12 L 23 22 M23 12 L 13 22 M12 25 C 14.7614 25 17 22.7614 17 20 C 17 17.2386 14.7614 15 12 15 C 9.23858 15 7 17.2386 7 20 C 7 22.7614 9.23858 25 12 25 Z M 24 25 C 26.7614 25 29 22.7614 29 20 C 29 17.2386 26.7614 15 24 15 C 21.2386 15 19 17.2386 19 20 C 19 22.7614 21.2386 25 24 25 Z" stroke="#FFFFFF" stroke-width="1.5" fill="none" stroke-linecap="round" />
<text x="48" y="47" font-family="Google Sans" font-size="14" font-weight="bold" fill="#1A1A1A">
<tspan x="52" dy="0">Связанность и оптимизация</tspan>
</text>
<text x="48" y="47" font-family="Google Sans" font-size="12" fill="#1A1A1A">
<tspan x="52" dy="0">Обеспечение связанности скоростных линий</tspan>
<tspan x="52" dy="18">и оптимизация движения транспорта.</tspan>
</text>
</g>
<g transform="translate(771 353)">
<rect x="0.0" y="0.0" width="36.0" height="36.0" rx="8" ry="8" fill="#0066CC" />
<path d="M18 10 V 18 L 23 21 M28 18 C 28 23.5228 23.5228 28 18 28 C 12.4772 28 8 23.5228 8 18 C 8 12.4772 12.4772 8 18 8 C 20.5935 8 22.9515 8.9038 24.7133 10.399" stroke="#FFFFFF" stroke-width="1.5" fill="none" stroke-linecap="round" stroke-linejoin="round" />
<text x="48" y="47" font-family="Google Sans" font-size="14" font-weight="bold" fill="#1A1A1A">
<tspan x="52" dy="0">Эффективность и интервалы</tspan>
</text>
<text x="48" y="47" font-family="Google Sans" font-size="12" fill="#1A1A1A">
<tspan x="52" dy="0">Сокращение интервалов движения</tspan>
<tspan x="52" dy="18">и повышение общей эффективности.</tspan>
</text>
</g>
</g>
</g>
</svg>